HIERARCHY
ROOT root
{
	OFFSET	0	13.1	24.9
	CHANNELS 6  Xposition Yposition Zposition Xrotation Yrotation Zrotation
	JOINT spine_1
	{
		OFFSET	0	9.99999	0
		CHANNELS 3  Xrotation Yrotation Zrotation
		JOINT spine_2
		{
			OFFSET	0	112	-10
			CHANNELS 3  Xrotation Yrotation Zrotation
			JOINT spine_3
			{
				OFFSET	0	206.5	19.3
				CHANNELS 3  Xrotation Yrotation Zrotation
				JOINT spine_4
				{
					OFFSET	0	110.4	14.6
					CHANNELS 3  Xrotation Yrotation Zrotation
					JOINT neck_1
					{
						OFFSET	0	71.8	-50.3
						CHANNELS 3  Xrotation Yrotation Zrotation
						JOINT neck_2
						{
							OFFSET	0	86.2	-25.8
							CHANNELS 3  Xrotation Yrotation Zrotation
							JOINT head_ee
							{
								OFFSET	0	179.8	-8.7
								CHANNELS 3  Xrotation Yrotation Zrotation
								End Site
								{
									OFFSET	1	0	0
								}
							}
						}
					}
					JOINT left_clavicle
					{
						OFFSET	-43.2	22.4	-70.8
						CHANNELS 3  Xrotation Yrotation Zrotation
						JOINT left_shoulder
						{
							OFFSET	-93.9	-5.79999	48.7
							CHANNELS 3  Xrotation Yrotation Zrotation
							JOINT left_elbow
							{
								OFFSET	-291.4	-30.8	15.2
								CHANNELS 3  Xrotation Yrotation Zrotation
								JOINT left_lowarm_twist
								{
									OFFSET	-110.7	-3.89999	13.6
									CHANNELS 3  Xrotation Yrotation Zrotation
									JOINT left_hand
									{
										OFFSET	-110.7	-3.89999	13.6
										CHANNELS 3  Xrotation Yrotation Zrotation
										JOINT left_ee
										{
											OFFSET	-80.8	-5.10001	12.1
											CHANNELS 3  Xrotation Yrotation Zrotation
											End Site
											{
												OFFSET	1	0	0
											}
										}
									}
								}
							}
						}
					}
					JOINT right_clavicle
					{
						OFFSET	43.2	22.4	-70.8
						CHANNELS 3  Xrotation Yrotation Zrotation
						JOINT right_shoulder
						{
							OFFSET	93.9	-5.79999	48.7
							CHANNELS 3  Xrotation Yrotation Zrotation
							JOINT right_elbow
							{
								OFFSET	291.4	-30.8	15.2
								CHANNELS 3  Xrotation Yrotation Zrotation
								JOINT right_lowarm_twist
								{
									OFFSET	110.7	-3.89999	13.6
									CHANNELS 3  Xrotation Yrotation Zrotation
									JOINT right_hand
									{
										OFFSET	110.7	-3.89999	13.6
										CHANNELS 3  Xrotation Yrotation Zrotation
										JOINT right_ee
										{
											OFFSET	80.8	-5.10001	12.1
											CHANNELS 3  Xrotation Yrotation Zrotation
											End Site
											{
												OFFSET	1	0	0
											}
										}
									}
								}
							}
						}
					}
				}
			}
		}
	}
	JOINT left_hip
	{
		OFFSET	-82.8	-127.5	0.300001
		CHANNELS 3  Xrotation Yrotation Zrotation
		JOINT left_knee
		{
			OFFSET	-28.2	-396.7	2.2
			CHANNELS 3  Xrotation Yrotation Zrotation
			JOINT left_ankle
			{
				OFFSET	-11.7	-411.3	35.4
				CHANNELS 3  Xrotation Yrotation Zrotation
				JOINT left_toes
				{
					OFFSET	0	-60	-88.6
					CHANNELS 3  Xrotation Yrotation Zrotation
					JOINT left_foot_ee
					{
						OFFSET	-22.5	-16.5	-42.2
						CHANNELS 3  Xrotation Yrotation Zrotation
						End Site
						{
							OFFSET	1	0	0
						}
					}
				}
			}
		}
	}
	JOINT right_hip
	{
		OFFSET	82.8	-127.5	0.300001
		CHANNELS 3  Xrotation Yrotation Zrotation
		JOINT right_knee
		{
			OFFSET	28.2	-396.7	2.2
			CHANNELS 3  Xrotation Yrotation Zrotation
			JOINT right_ankle
			{
				OFFSET	11.7	-411.3	35.4
				CHANNELS 3  Xrotation Yrotation Zrotation
				JOINT right_toes
				{
					OFFSET	0	-60	-88.6
					CHANNELS 3  Xrotation Yrotation Zrotation
					JOINT right_foot_ee
					{
						OFFSET	22.5	-16.5	-42.2
						CHANNELS 3  Xrotation Yrotation Zrotation
						End Site
						{
							OFFSET	1	0	0
						}
					}
				}
			}
		}
	}
}
MOTION
Frames: 9
Frame Time: 0.02
3125.15 695.669 -908.116 -18.1909 53.439 19.3728 2.61244 0.0371455 -1.02484 2.61302 0.10228 -1.0204 2.61105 0.269697 -0.989414 2.6097 0.110061 -1.01959 -1.11604 9.43554 -2.08446 -0.863032 18.622 -1.11374 -0.0 0.0 -0.0 4.36751 23.8158 8.72215 -54.1902 -71.4654 17.6115 1.32821 -33.3415 0.39776 21.4848 0.25022 -2.71704 -9.07406 23.0911 -50.718 -0.0 0.0 -0.0 11.0976 20.3027 -21.8539 -56.8512 65.6449 -52.0157 0.345733 9.71873 -0.0293929 15.3784 -0.283254 1.93816 -5.54556 -8.79213 34.3087 0.0 0.0 0.0 5.57523 34.81 -6.65511 -21.732 0.271039 3.30397 30.5364 -9.03407 -4.08558 -1.53581 0.0 0.0 -0.0 0.0 -0.0 37.5142 17.8922 -10.1383 0.903349 0.0382515 0.133344 -16.585 -6.11028 -2.4916 11.7836 -0.0 -0.0 0.0 0.0 0.0 
3113.51 691.438 -919.492 -18.5034 52.9477 19.3425 2.56312 0.0698814 -0.848297 2.56351 0.123717 -0.842132 2.56159 0.262039 -0.809834 2.5607 0.130857 -0.841052 0.237675 9.60195 -2.56178 0.572843 19.187 -1.82303 -0.0 0.0 -0.0 3.74952 23.4183 7.86953 -55.5945 -70.3137 17.5765 1.32016 -33.1819 0.393347 21.036 0.255473 -2.65995 -9.09036 23.2017 -50.7157 -0.0 0.0 -0.0 11.211 21.0685 -22.0532 -57.4637 65.9956 -49.8442 0.376477 10.5643 -0.0348065 14.8401 -0.282181 1.8694 -5.51656 -8.67306 34.1638 0.0 0.0 0.0 5.5389 33.9996 -6.91761 -22.7416 0.25301 3.45785 30.0041 -9.55664 -4.03814 -1.78229 0.0 0.0 -0.0 0.0 -0.0 37.4698 17.7377 -10.3839 0.722024 0.0304045 0.106626 -16.8754 -7.33627 -2.53383 11.4613 -0.0 -0.0 0.0 0.0 0.0 
3101.63 694.244 -929.511 -18.9877 52.6312 19.7377 2.5238 -0.07542 -0.695855 2.52406 -0.0309892 -0.699244 2.52439 0.0861607 -0.694607 2.52372 -0.024618 -0.699497 0.366034 9.31019 -3.16181 0.72337 19.146 -2.52481 -0.0 0.0 -0.0 3.48722 23.0968 7.50314 -52.4366 -68.8258 22.8871 1.28636 -32.5049 0.375015 19.9661 0.26619 -2.52372 -8.97091 22.1405 -51.0908 -0.0 0.0 -0.0 11.645 21.2482 -23.0274 -57.542 66.2661 -46.7559 0.386143 10.8292 -0.0366004 14.5975 -0.281487 1.83843 -5.48113 -9.95963 32.9578 0.0 0.0 0.0 5.31504 33.4964 -6.68498 -22.426 0.258938 3.40978 29.0205 -11.2161 -3.96401 -2.05213 0.0 0.0 -0.0 0.0 -0.0 37.694 17.4564 -10.9597 -0.857599 -0.0343615 -0.127122 -17.7854 -7.38355 -2.67185 12.0621 -0.0 -0.0 0.0 0.0 0.0 
3085.16 699.262 -945.024 -19.1688 52.0093 19.6618 2.48362 -0.00689588 -0.618696 2.48383 0.0324866 -0.617881 2.48344 0.135599 -0.603693 2.48293 0.0385574 -0.617532 0.541656 10.2025 -4.17602 1.03247 21.5458 -3.59435 -0.0 0.0 -0.0 3.24687 16.7992 7.0306 -45.6404 -66.305 34.4459 1.20248 -30.7799 0.331001 19.5381 0.269765 -2.46917 -8.9042 22.1031 -50.4646 -0.0 0.0 -0.0 11.7229 20.0424 -23.2964 -58.9677 66.7964 -43.2271 0.39891 11.1783 -0.0390374 14.5094 -0.281202 1.82718 -5.53086 -11.4222 32.2762 0.0 0.0 0.0 5.01095 33.1346 -6.46454 -23.262 0.24266 3.53703 24.4606 -10.6766 -3.42361 -1.77854 0.0 0.0 -0.0 0.0 -0.0 37.4857 18.0478 -11.3048 -2.19515 -0.0841392 -0.326355 -15.5056 -6.75073 -2.32657 13.6243 -0.0 -0.0 0.0 0.0 0.0 
3071.2 703.811 -960.384 -18.393 51.4641 18.9134 2.35897 0.0662008 -0.352767 2.35904 0.0885139 -0.34784 2.35848 0.146282 -0.327763 2.35835 0.0926829 -0.346752 0.512708 10.0379 -4.06647 0.982576 21.1664 -3.48153 -0.0 0.0 -0.0 3.5808 14.4332 7.5011 -42.3188 -63.0419 40.4317 0.979548 -25.884 0.225107 20.294 0.263176 -2.56549 -8.54584 21.325 -48.0222 -0.0 0.0 -0.0 12.0957 19.5252 -24.1867 -59.5535 67.5349 -39.0722 0.410454 11.4933 -0.0413064 14.085 -0.279588 1.77299 -5.26833 -11.5993 30.1611 0.0 0.0 0.0 5.16622 29.9289 -6.61505 -23.8009 0.231183 3.61893 22.9534 -12.5687 -3.2756 -2.43329 0.0 0.0 -0.0 0.0 -0.0 37.1533 18.1518 -12.2994 -2.8661 -0.107351 -0.426708 -17.1135 -7.45748 -2.56983 15.2803 -0.0 -0.0 0.0 0.0 0.0 
3058.87 704.085 -969.939 -18.1088 51.0481 18.5439 2.36576 0.110005 -0.323342 2.36581 0.130357 -0.315687 2.36507 0.182026 -0.288994 2.36498 0.134101 -0.314115 0.667976 10.6642 -4.21255 1.20207 22.3853 -3.62278 -0.0 0.0 -0.0 2.01337 11.3318 4.74751 -37.2943 -62.4954 49.8215 1.02891 -27.007 0.247094 19.5577 0.26961 -2.47167 -7.99359 19.0003 -45.7536 -0.0 0.0 -0.0 11.7258 16.2634 -23.522 -65.2513 69.1132 -31.334 0.459625 12.8269 -0.0516647 12.6319 -0.271024 1.58759 -5.06606 -11.4206 28.7854 0.0 0.0 0.0 5.05866 28.1044 -5.82829 -22.1342 0.264182 3.36531 19.4697 -13.6069 -2.84935 -3.63708 0.0 0.0 -0.0 0.0 -0.0 37.1343 18.2989 -12.7962 -3.96759 -0.142903 -0.592013 -16.4588 -7.68624 -2.47026 18.6974 -0.0 -0.0 0.0 0.0 0.0 
3030.89 702.286 -980.011 -18.4549 51.2016 19.0928 2.31895 -0.0974531 -0.317067 2.319 -0.0770799 -0.322625 2.31944 -0.0209654 -0.331042 2.31929 -0.0729839 -0.323577 3.26008 10.3812 -5.27493 4.00719 22.5489 -5.3448 -0.0 0.0 -0.0 1.00426 9.56876 2.8739 -28.5359 -59.4308 61.7669 1.00842 -26.5435 0.237862 17.6189 0.280779 -2.2243 -7.44604 16.0812 -44.0126 -0.0 0.0 -0.0 11.7013 13.8657 -23.5523 -69.8826 69.8647 -24.455 0.448085 12.5151 -0.0491335 11.5621 -0.261716 1.45128 -4.66032 -11.3029 25.9189 0.0 0.0 0.0 3.51474 27.9937 -5.15178 -21.7449 0.270826 3.30593 18.4631 -16.0084 -2.76221 -4.16037 0.0 0.0 -0.0 0.0 -0.0 37.6232 18.9371 -13.0352 -7.87567 -0.243252 -1.18325 -12.9867 -7.83793 -1.94322 26.4337 -0.0 -0.0 0.0 0.0 0.0 
3011.67 702.184 -984.201 -16.3264 51.3077 17.0367 2.30181 -0.0118191 -0.347494 2.30188 0.0103167 -0.347542 2.30181 0.0695055 -0.340677 2.30165 0.01483 -0.347378 1.67673 11.1837 -5.45643 2.42429 24.2399 -5.18564 -0.0 0.0 -0.0 0.263718 7.00444 1.3039 -24.8009 -61.5681 69.4793 0.933234 -24.8106 0.205279 17.6755 0.280572 -2.23151 -6.90523 15.5475 -39.8432 -0.0 0.0 -0.0 11.8359 13.862 -23.8581 -71.2361 69.5546 -20.951 0.458222 12.7891 -0.0513538 10.4161 -0.248923 1.30545 -4.50713 -10.4915 25.3464 0.0 0.0 0.0 3.37474 24.2549 -4.40803 -23.4838 0.23803 3.57075 13.9012 -15.3171 -2.11455 -5.15252 0.0 0.0 -0.0 0.0 -0.0 35.8772 18.9919 -12.5997 -10.4978 -0.287874 -1.5831 -9.11464 -6.60168 -1.35807 28.8276 -0.0 -0.0 0.0 0.0 0.0 
2990.58 703.705 -987.372 -12.5445 50.3476 13.2169 2.10108 0.0851311 -0.281186 2.10111 0.102851 -0.275199 2.10061 0.149219 -0.253074 2.10054 0.107378 -0.273464 2.19186 11.4528 -5.80154 3.0367 24.9541 -5.67766 -0.0 0.0 -0.0 0.797891 4.22346 1.97646 -26.699 -61.4393 73.6979 0.881302 -23.5844 0.183992 17.6291 0.280742 -2.22559 -6.02646 11.5654 -36.0615 -0.0 0.0 -0.0 11.8168 13.4076 -23.8261 -73.5575 69.227 -17.1952 0.480047 13.3768 -0.0562942 9.50418 -0.23666 1.18962 -4.2251 -8.25897 24.7124 0.0 0.0 0.0 4.10001 22.6321 -4.25783 -28.7374 0.0903519 4.3632 9.9135 -15.2608 -1.53282 -6.19969 0.0 0.0 -0.0 0.0 -0.0 33.9636 19.8314 -11.8134 -14.5302 -0.320684 -2.20082 -6.66132 -4.70387 -0.990415 33.584 -0.0 -0.0 0.0 0.0 0.0 
